HIERARCHY
ROOT RootJoint
{
    OFFSET   0.000000   0.000000   0.000000
    CHANNELS 6 Xposition Yposition Zposition Xrotation Yrotation Zrotation
    JOINT pelvis_lowerback
    {
        OFFSET   0.000000   0.093605   0.000000
        CHANNELS 3 Xrotation Yrotation Zrotation
        JOINT lowerback_torso
        {
            OFFSET   0.000000   0.100000   0.000000
            CHANNELS 3 Xrotation Yrotation Zrotation
            JOINT torso_head
            {
                OFFSET   0.000000   0.282350   0.000000
                CHANNELS 3 Xrotation Yrotation Zrotation
                End Site
                {
                    OFFSET   0.000000   0.192650   0.000000
                }
            }
            JOINT rTorso_Clavicle
            {
                OFFSET  -0.001000   0.157500   0.000000
                CHANNELS 3 Xrotation Yrotation Zrotation
                JOINT rShoulder
                {
                    OFFSET  -0.117647   0.000000   0.000000
                    CHANNELS 3 Xrotation Yrotation Zrotation
                    JOINT rElbow
                    {
                        OFFSET  -0.245000   0.000000   0.000000
                        CHANNELS 3 Xrotation Yrotation Zrotation
                        JOINT rWrist
                        {
                            OFFSET  -0.240000   0.000000   0.000000
                            CHANNELS 3 Xrotation Yrotation Zrotation
                            End Site
                            {
                                OFFSET  -0.116353  -0.002500   0.000000
                            }
                        }
                    }
                }
            }
            JOINT lTorso_Clavicle
            {
                OFFSET   0.001000   0.157500   0.000000
                CHANNELS 3 Xrotation Yrotation Zrotation
                JOINT lShoulder
                {
                    OFFSET   0.117647   0.000000   0.000000
                    CHANNELS 3 Xrotation Yrotation Zrotation
                    JOINT lElbow
                    {
                        OFFSET   0.245000   0.000000   0.000000
                        CHANNELS 3 Xrotation Yrotation Zrotation
                        JOINT lWrist
                        {
                            OFFSET   0.240000   0.000000   0.000000
                            CHANNELS 3 Xrotation Yrotation Zrotation
                            End Site
                            {
                                OFFSET   0.116353  -0.002500   0.000000
                            }
                        }
                    }
                }
            }
        }
    }
    JOINT rHip
    {
        OFFSET  -0.100000  -0.051395   0.000000
        CHANNELS 3 Xrotation Yrotation Zrotation
        JOINT rKnee
        {
            OFFSET   0.000000  -0.410000   0.000000
            CHANNELS 3 Xrotation Yrotation Zrotation
            JOINT rAnkle
            {
                OFFSET   0.000000  -0.390000   0.000000
                CHANNELS 3 Xrotation Yrotation Zrotation
                JOINT rToeJoint
                {
                    OFFSET   0.000000  -0.050000   0.130000
                    CHANNELS 3 Xrotation Yrotation Zrotation
                    End Site
                    {
                        OFFSET  -0.010000   0.002000   0.060000
                    }
                }
            }
        }
    }
    JOINT lHip
    {
        OFFSET   0.100000  -0.051395   0.000000
        CHANNELS 3 Xrotation Yrotation Zrotation
        JOINT lKnee
        {
            OFFSET   0.000000  -0.410000   0.000000
            CHANNELS 3 Xrotation Yrotation Zrotation
            JOINT lAnkle
            {
                OFFSET   0.000000  -0.390000   0.000000
                CHANNELS 3 Xrotation Yrotation Zrotation
                JOINT lToeJoint
                {
                    OFFSET   0.000000  -0.050000   0.130000
                    CHANNELS 3 Xrotation Yrotation Zrotation
                    End Site
                    {
                        OFFSET   0.010000   0.002000   0.060000
                    }
                }
            }
        }
    }
}
MOTION
Frames: 7
Frame Time:   0.008333
 -2.351611   0.896320   4.856890   1.304906  -0.447066   1.101339   1.407509   5.210240   0.460192  -1.480921   0.449373   1.482066  -3.466778   0.801675   2.498744   2.270518   0.328121   5.109542   7.258192  19.701163  48.760680  -0.001302  20.591953  -0.000023   9.576570   2.212258   3.699734   1.814413   3.109488  -6.648237  13.868652 -14.540164 -53.748009   0.000419 -11.566316  -0.000988   9.802639  -2.228688  -6.896976  16.505547   1.016636  -4.578072  14.158541   0.005927   0.001765  -1.063709   3.650507   1.414437 -43.193382   0.000398   0.000849 -21.304908  -1.903506   0.881796  13.429525   0.004065  -0.004292   0.227293   6.198286   0.625432   0.014240  -0.000064  -0.000522
 -2.348519   0.897361   4.864888   1.432324  -0.440125   1.260295   1.251400   5.231487   0.234050  -1.491726   0.425870   1.498281  -3.459572   0.832797   2.566373   2.319778   0.328587   5.221145   7.418625  19.661932  48.864241  -0.001527  20.353753   0.000130   9.658840   2.215928   3.750564   1.780661   2.960434  -6.633532  13.761729 -14.677418 -53.617938   0.000331 -11.570392  -0.000785   9.796964  -2.274256  -6.892448  15.988160   1.148445  -4.958734  15.680241   0.008334   0.002338  -0.139269   3.764407   1.719210 -43.669427   0.001236   0.000740 -20.967248  -2.083657   0.443483  13.487367   0.003373  -0.003587   0.460836   6.174549   0.914733   0.069041  -0.000114  -0.000580
 -2.345526   0.898479   4.872948   1.524305  -0.321388   1.387856   1.097569   5.208519   0.024683  -1.492456   0.370255   1.527950  -3.446416   0.862162   2.632003   2.381320   0.314416   5.323844   7.579765  19.618539  48.970189  -0.001665  20.126950   0.000275   9.739901   2.198221   3.829269   1.734320   2.807689  -6.588039  13.652657 -14.811878 -53.478910   0.000248 -11.581243  -0.000619   9.787587  -2.351658  -6.873405  15.461676   1.275759  -5.269574  17.303091   0.010783   0.003909   0.815964   3.889187   2.016238 -43.583974   0.000793   0.000632 -20.559227  -2.282297   0.019798  13.465696   0.002657  -0.002828   0.634572   6.142835   1.201240   0.105200  -0.000129  -0.000542
 -2.342604   0.899571   4.881065   1.606600  -0.117953   1.494646   0.933496   5.164071  -0.170714  -1.499936   0.294158   1.561843  -3.433938   0.889315   2.692407   2.452160   0.286700   5.416067   7.741306  19.570277  49.071706  -0.001713  19.911658   0.000414   9.818520   2.165553   3.925034   1.681940   2.657754  -6.521478  13.546502 -14.939574 -53.333390   0.000174 -11.594253  -0.000492   9.903539  -2.457272  -6.825359  14.970217   1.401500  -5.529471  18.890380   0.012940   0.005963   1.771811   4.020175   2.301385 -42.928155  -0.000940   0.001143 -20.138482  -2.469396  -0.388168  13.424074   0.002041  -0.002224   0.780492   6.113715   1.470982   0.132675  -0.000125  -0.000467
 -2.339734   0.900588   4.889201   1.689811   0.142658   1.590885   0.761846   5.111223  -0.357160  -1.518647   0.209348   1.594270  -3.424324   0.914683   2.747687   2.525554   0.252380   5.497925   7.898745  19.520244  49.165984  -0.001689  19.708291   0.000549   9.894608   2.122302   4.025614   1.626874   2.512855  -6.442336  13.444941 -15.060011 -53.185242   0.000112 -11.608072  -0.000396   9.868183  -2.547756  -6.757609  14.516223   1.525623  -5.755919  20.406644   0.014696   0.008019   2.713444   4.155318   2.573069 -41.808123  -0.003422   0.002515 -19.726276  -2.641459  -0.784844  13.383740   0.001551  -0.001772   0.913059   6.088289   1.721913   0.155644  -0.000115  -0.000386
 -2.336904   0.901509   4.897324   1.778177   0.441910   1.682760   0.587075   5.056951  -0.537405  -1.547807   0.123241   1.622200  -3.417538   0.938449   2.798249   2.596379   0.216814   5.570222   8.048331  19.471330  49.252186  -0.001615  19.517466   0.000681   9.967981   2.074431   4.122841   1.570882   2.374096  -6.356996  13.348197 -15.173247 -53.038124   0.000060 -11.622105  -0.000325   9.838471  -2.639440  -6.672467  14.096275   1.646724  -5.959465  21.841414   0.016020   0.009813   3.632718   4.291271   2.830279 -40.321675  -0.006064   0.004680 -19.330918  -2.799246  -1.173250  13.353152   0.001178  -0.001427   1.038880   6.066237   1.954520   0.175801  -0.000101  -0.000309
 -2.334114   0.902327   4.905408   1.873607   0.768020   1.773630   0.412865   5.004996  -0.712670  -1.585278   0.040066   1.644301  -3.413020   0.960722   2.844534   2.661605   0.183289   5.634057   8.187844  19.425428  49.330433  -0.001509  19.339420   0.000805  10.038451   2.027162   4.212253   1.515350   2.241890  -6.270013  13.256432 -15.279760 -52.894832   0.000020 -11.636060  -0.000272   9.813447  -2.731064  -6.576339  13.706537   1.763674  -6.146185  23.192048   0.016922   0.011244   4.524807   4.425299   3.072609 -38.544629  -0.008420   0.007446 -18.955716  -2.943950  -1.554880  13.335347   0.000907  -0.001154   1.160965   6.047118   2.169888   0.193944  -0.000086  -0.000241
